<svg width="20" height="20" viewBox="0 0 20 20" fill="none" xmlns="http://www.w3.org/2000/svg">
<path d="M7.02734 7.27344C1.74609 6.17969 0.824219 5.28516 0.824219 5.28516V7.57812C2.58594 8.51562 3.80078 9.01953 5.58594 9.32031C5.58594 9.32031 6.27734 8.32031 6.92187 7.73437C7.04297 7.625 7.05469 7.46094 7.04297 7.36328C7.03906 7.30859 7.03125 7.27344 7.02734 7.27344Z" fill="#2E5DD5"/>
<path d="M12.5508 7.21094C12.6523 7.36719 12.6914 7.37891 12.7969 7.57812C14.1055 8.03906 14.707 9.01563 14.8672 9.23047C17.6797 8.40625 19.1172 7.26953 19.1172 7.26953V5.07812C19.1172 5.08203 16.1055 6.53906 12.5508 7.21094Z" fill="#2E5DD5"/>
<path d="M15.3281 5.80856C16.6602 5.38669 17.7695 4.92966 18.4336 4.63278C9.67969 0.308564 3.23438 3.68747 1.37109 4.89841C1.85938 5.16013 2.74609 5.54294 4.27344 5.97653C6.55078 5.19138 9.58594 4.53903 12.4688 5.13278C13.5938 5.36325 14.5352 5.58981 15.3281 5.80856Z" fill="#2E5DD5"/>
<path d="M8 7.6797C8 7.6797 9.15234 8.62891 9.73828 9.01563C9.73828 9.01563 9.74609 7.83985 10.2813 7.08985C10.2852 7.08985 8.77344 5.9336 8 7.6797Z" fill="#2E5DD5"/>
<path d="M9.77344 9.58203L9.01562 10.5C9.01562 10.5 9.30859 11.1719 10.1094 10.7305L9.77344 9.58203Z" fill="#2E5DD5"/>
<path d="M10.8789 7.35545C10.8789 7.35545 9.95706 8.89452 10.7539 10.4023C10.7539 10.4023 12.4414 10.457 12.3789 8.87889C12.3164 7.30077 10.8789 7.35545 10.8789 7.35545Z" fill="#2E5DD5"/>
<path d="M7.46094 8.17969L9.13282 9.44922C9.13282 9.44922 6.64063 11.9531 4.38282 17.7891L2.71485 16.3047C2.71094 16.3047 5.09766 10.0703 7.46094 8.17969Z" fill="#2E5DD5"/>
<path d="M12.1875 10.5508C12.1875 10.5508 14.418 12.7187 15.5469 17.6328L17.2344 15.9922C17.2344 15.9922 15.6289 9.875 12.9102 8.33594C12.9102 8.33594 13.3203 9.99219 12.1875 10.5508Z" fill="#2E5DD5"/>
</svg>
