<?xml version="1.0" encoding="utf-8"?>
<!-- Generator: Adobe Illustrator 27.0.1, SVG Export Plug-In . SVG Version: 6.00 Build 0)  -->
<svg version="1.1" id="Layer_1" xmlns="http://www.w3.org/2000/svg" xmlns:xlink="http://www.w3.org/1999/xlink" x="0px" y="0px"
	 viewBox="0 0 30 30" style="enable-background:new 0 0 30 30;" xml:space="preserve">
<style type="text/css">
	.st0{fill-rule:evenodd;clip-rule:evenodd;fill:#E0E7EC;}
	.st1{fill-rule:evenodd;clip-rule:evenodd;fill:#364D5E;}
</style>
<g>
	<g>
		<path class="st0" d="M15,29.9c8.2,0,14.9-6.7,14.9-14.9c0-8.2-6.7-14.9-14.9-14.9C6.8,0.1,0.1,6.8,0.1,15
			C0.1,23.2,6.8,29.9,15,29.9z"/>
		<path class="st1" d="M17.7,12.2c0,1.5-1.2,2.7-2.7,2.7s-2.7-1.2-2.7-2.7c0-1.5,1.2-2.7,2.7-2.7S17.7,10.7,17.7,12.2z M10.1,21.1
			c0-2.7,2.2-4.9,4.9-4.9s4.9,2.2,4.9,4.9H10.1z"/>
	</g>
</g>
</svg>
