<?xml version="1.0" encoding="UTF-8"?>
<svg id="Layer_2" data-name="Layer 2" xmlns="http://www.w3.org/2000/svg" viewBox="0 0 556 353.12">
  <defs>
    <style>
      .cls-1 {
        fill: #d3cee9;
      }

      .cls-2 {
        fill: #062726;
      }
    </style>
  </defs>
  <g id="Layer_1-2" data-name="Layer 1">
    <g>
      <path class="cls-1" d="M290,.7C25.36,14.11,6.27,107.58,18.11,182.14c9.31-.77,18.44-2.77,27.69-4.05,2.62-.36,5.21-.83,7.79-1.33,.15-1.85,1.2-3.62,3.42-4.38,13.37-4.56,22.59-14.93,31.13-25.66-1.1-2.11-.8-4.73,2.03-5.94,19.25-8.23,29.65-28.66,42.06-44.13,3.24-4.04,7.02-7.97,11.96-9.85,4.93-1.88,10.2-1.53,15.36-1.9,5.7-.41,11.32-2.17,16.95-3.18,6.19-1.11,12.4-1.81,18.69-1.88,6.45-.07,6.43,9.93,0,10-11.96,.13-23.08,4.04-34.87,5-4.62,.37-10.03-.43-14.17,2.07-.25,.15-.5,.31-.74,.48,13.84,.71,27.39,5.44,41.29,4.21,14.09-1.25,28.86-16.82,43.32-14.91,10.5,1.39,8.28,17.86,6.26,25.97-1.05,4.2-6.26,14.03-7.26,17.03-.63,1.9-.16,4.15,0,5,1.07,5.59,5.33,9.33,10,7,24-12,17.85,3.17,14.65,13.67-2.49,8.19-10.31,10.94-12.65,15.33-3.56,6.69,.12,13.56,3,15,4,2,9.08-4.95,12-2,2.58,2.6,2.61,13.31,1.62,17.15-1.15,4.46-5.83,6.23-9.87,7.08-.11,.02-.23,.04-.34,.05-.15,.34-.35,.68-.62,1.03-4.91,6.44-5.79,11.25-5.79,18.69,0,8,7,2,7,11,0,6-4.45,11.63-7.58,12.59-28.92,8.89-59.87,12.82-89.59,6.13-23.24-5.23-51.82-16.33-73.98-3.04-3.13,5.23-7.87,9.21-12.66,13.17,102.57,95.83,345.57,114.48,425.8,39.16,7.47-7.02,14.36-14.88,20.58-23.39-7.98-2.25-14.61-6.62-20.79-11.73-5.88-3.43-11.65-7.07-17.81-10.01-9.9-4.73-20.3-8.93-30.78-12.35-14.09-.17-23.63,9.59-35.92,14.95-11.22,4.9-24.47,5.02-36.27,2.09-10.62-2.64-20.8-9.31-22.58-20.86-1-6.45,.52-12.68,3.35-18.48,3.02-6.18,9.55-13.43,8.38-20.78-.71-4.43,4.72-9,8.36-4.86,5.53,6.29,11.96,11.03,20.08,13.32,5.14,1.45,10.45,2.04,15.78,2.34-.43-.64-.7-1.38-.8-2.16-6.3-2.01-12.46-4.56-17.81-8.39-7.56-5.4-12.42-13.09-16.21-21.45-3.7-8.17-6.98-17.74-4.94-26.79,.61-2.7,1.84-5,3.32-7.16-.74-1.1-1.02-2.45-.45-3.81,2.49-5.99,7.45-8.65,11.42-13.47,.99-1.21,2.26-1.64,3.51-1.56,.44-1.83,.09-3.78-1.53-5.79-.39-.48-.86-.88-1.37-1.25-.06,.04-.11,.09-.18,.12-3.22,1.68-6.82,2.25-9.99,.13-1.44-.96-2.44-2.23-3.44-3.61-.37-.52-.72-1.05-1.09-1.58-.16-.24-1.1-1.47-.55-.79-.47-.58-.83-1.22-1.08-1.89-.04-.03-.08-.06-.12-.09-.91-.13-1.66-.47-2.26-.96-2.27,.25-4.56,.33-6.84,.37-6.34,4.35-7,14.15-8.19,21.11-1.94,11.33-5.39,22.67-8.82,33.7,.11,.95-.13,2-.87,3.05-.05,.08-.12,.16-.17,.24-.39,1.04-1.01,1.81-1.76,2.33-.73,.91-1.53,1.82-2.37,2.7,4.03-2.4,7.46-6.02,10.03-10.03,3.2-4.97,10.1-1.61,9.14,3.85-1,5.68-2.34,11.29-3.25,16.98,.04,.5,0,1.04-.13,1.6-.92,4.01-2.81,7.18-5.37,9.57-1.76,11.99-6.83,22.81-10.24,34.46-2.21,7.54-3.86,16.5-9.12,22.63-4.14,4.82-10.3,6.21-16.43,5.67-6.98-.62-16.5-1.92-22.4-6.03-5.15-3.58-5.38-11.14-8.04-16.35-4.74-9.29-11.13-17.08-10.64-28.13,.39-8.81,4.62-16.54,7.19-24.79-2.98-3.16-4.7-7.18-5.43-11.53-.71-4.2-1.8-9.82,.73-13.65,.18-.28,.38-.53,.57-.76-4.56-2.15-4.02-10.17,1.72-9.52,.32,.04,.64,.09,.96,.13,.19-2.77,.74-5.75,1.83-8.27-1.42-.45-2.7-1.52-3.39-3.27-.02-.06-.04-.11-.06-.17-2.67-3.96-2.47-9.32-1.63-14.31,.58-3.44,3.56-4.22,6.06-3.24,5.63-10.94,15.84-19.06,27.84-23.91,5.45-2.2,8.06,5.64,4.02,8.85-.03,.06-.04,.12-.07,.18-5.24,11.69-6.13,24.64-7.76,37.18-.04,.3-.11,.6-.19,.89,.68,4.36,1.22,8.79,.92,13.06,.36,.5,.63,1.05,.78,1.61,1.76,6.59,5.34,12.94,10.85,16.74-.11-.74-.16-1.51-.11-2.29-1.4-1.13-2.24-3.01-1.8-5.16,2.66-13.13-.23-31.16,7.44-43.14-.2-.79-.25-1.63-.12-2.47,1.4-8.92,3.06-18.64,11.54-23.61,7.89-4.63,18.77-4.44,28.16-2.73,1.35-.8,3.05-1.06,4.81-.3,10.33,4.43,22.25,4.96,31.43,10.9,5.86,2.62,11.86,5.61,15.62,11.02,.43,.62,.81,1.26,1.16,1.92,6.59,5.03,12.54,11.1,17.89,17.15,4.3,3.93,8.16,8.28,11.12,13.22,5.92,9.85,8.77,21.71,7.39,33.15-1.09,9.06-4.36,18.89-11.68,24.82-2.83,2.3-6.04,3.81-9.42,4.83,7.02-.79,13.81-2.57,19.77-6.59,4.45-4.46,10.11-7.56,14.41-12.21,1.66-1.8,3.11-3.74,4.62-5.61-.9-4.25-.94-8.6,2.15-12.04,5.22-5.82,14.86-6.13,22.08-6.1,10.27,.05,20.3,.34,30.57-.41,10.63-.77,21.25-1.63,31.9-1.01C547.91,82.19,479.58-8.91,290,.7Z"/>
      <path class="cls-2" d="M406,266.7c-11,2-58,1-58-21s15.23-35,15-47,4-8,7-2,9,15,22,19,19,3,19,3c0,0-27-10-34-22s-24-39,2-62c0,0,3-12-5-5s-18,10-16-3-6,2-6,2c0,0-5.87,50.78-25.62,54-18.38,3-19.38-7-16.38-30s8-46,16-49,62-8,82,14,38.91,31.72,43.95,58.86-19.95,38.14-19.95,38.14c0,0,23-2,28-19s2-25,7-27,89,5,89,5l-95-22s-6-1-17-14-26-44-85-44-90,2-103,37c0,0-5,1-5-30s-42-21-42-21c0,0-4-14-45-9s-38,12-64,41l-22,23s-8,10-10,20S0,186.7,0,186.7l57.77-10.14s15.23-3.86,21.23-15.86,27-37,37-49,15-30,38-32,40-8,48,3c0,0-20,8-38,8l-16-4,6,4s-13,3-13,6,13,0,28,1,35-10,49-11,24-1,24,19c0,17.12-5,15-4,24s12,1.76,12,21c0,11-6.26,10.88-5,21,1,8,8,4.97,8,20,0,18-8,10-8,22s7,7,5,21c-1.39,9.75-39,28-77,29s-81-19-102-3-55.47,41.52-55.47,41.52c0,0,58.47-29.52,63.47-29.52s82,8,116,0,57-15,65-37l8,4s-7,37,36,33c0,0,17-3,23-3s26,5,46,5c0,0,35,9,56-1l9-5s5-5,35,5l60,20s-52-36-75-40-41,11-52,13ZM273.19,120.85c10.62-14.15,26.54-13.27,40.69-14.15,0,0-3.54,5.31-5.31,12.38,0,0-3.54-4.42-7.96-5.31-4.42-.88,5.31,7.96,6.19,9.73,0,0-5.31,23.88-5.31,29.19,0,0-23.88-3.54-29.19-7.08-5.31-3.54-11.38-8.42,.88-24.77Zm53.81,137.85c-5.11,2.19-39,8.28-44-2s-2-16-2-16c12,7,52.42,0,55,0,2.04,0-2,15-9,18Zm3.67-27.86c-14.3,2.84-53.13,5.67-65.49-8.22-7.52-8.45,4.82-23.92,4.82-23.92,0,0,36.15,20.34,76,9,0,0-1.02,20.3-15.33,23.14Zm-22.67-30.14c-26-4-37.9-10-42-18-4.1-8,.88-27,.88-27,8.88,3,34.12,8,34.12,8,0,24,5,25,20,27s28-21,28-21h5s-1,17-7,24-13,11-39,7Z"/>
    </g>
  </g>
</svg>