<?xml version="1.0" encoding="utf-8"?>
<!-- Generator: Adobe Illustrator 27.0.1, SVG Export Plug-In . SVG Version: 6.00 Build 0)  -->
<svg version="1.1" id="Layer_1" xmlns="http://www.w3.org/2000/svg" xmlns:xlink="http://www.w3.org/1999/xlink" x="0px" y="0px"
	 viewBox="0 0 22 22" style="enable-background:new 0 0 22 22;" xml:space="preserve">
<style type="text/css">
	.st0{clip-path:url(#SVGID_00000072281027265311482620000014339689531795867570_);}
	.st1{fill:#062726;}
</style>
<g>
	<defs>
		<rect id="SVGID_1_" width="22" height="22"/>
	</defs>
	<clipPath id="SVGID_00000102544065372429640020000003730003754271128463_">
		<use xlink:href="#SVGID_1_"  style="overflow:visible;"/>
	</clipPath>
	<g style="clip-path:url(#SVGID_00000102544065372429640020000003730003754271128463_);">
		<path class="st1" d="M20.4,11.9h-19c-0.6,0-1-0.4-1-1s0.4-1,1-1h19c0.6,0,1,0.4,1,1S21,11.9,20.4,11.9z"/>
		<path class="st1" d="M10.9,21.4c-0.3,0-0.5-0.1-0.7-0.3l-9.5-9.5c-0.4-0.4-0.4-1,0-1.4l9.5-9.5c0.4-0.4,1-0.4,1.4,0
			c0.4,0.4,0.4,1,0,1.4l-8.8,8.8l8.8,8.8c0.4,0.4,0.4,1,0,1.4C11.4,21.3,11.2,21.4,10.9,21.4z"/>
	</g>
</g>
</svg>
