<?xml version="1.0" encoding="utf-8"?>
<!-- Generator: Adobe Illustrator 27.0.1, SVG Export Plug-In . SVG Version: 6.00 Build 0)  -->
<svg version="1.1" id="Layer_1" xmlns="http://www.w3.org/2000/svg" xmlns:xlink="http://www.w3.org/1999/xlink" x="0px" y="0px"
	 viewBox="0 0 22 22" style="enable-background:new 0 0 22 22;" xml:space="preserve">
<style type="text/css">
	.st0{fill:#8F5DD0;}
</style>
<path class="st0" d="M19.2,16.6H2.8c-0.4,0-0.8-0.3-1-0.7c-0.1-0.4,0-0.9,0.4-1.1c0,0,2.3-1.7,2.3-7.4c0-1.7,0.7-3.4,1.9-4.6
	S9.3,0.8,11,0.8s3.4,0.7,4.6,1.9c1.2,1.2,1.9,2.9,1.9,4.6c0,5.7,2.3,7.4,2.3,7.4c0.4,0.3,0.5,0.7,0.4,1.1S19.7,16.6,19.2,16.6z
	 M4.9,14.6h12.3c-0.8-1.4-1.6-3.7-1.6-7.2c0-1.2-0.5-2.3-1.3-3.2c-0.8-0.9-2-1.3-3.2-1.3S8.7,3.3,7.8,4.2C7,5,6.5,6.1,6.5,7.3
	C6.5,10.9,5.7,13.2,4.9,14.6z"/>
<path class="st0" d="M11,21.2c-0.5,0-1-0.1-1.4-0.4c-0.4-0.2-0.8-0.6-1-1c-0.3-0.5-0.1-1.1,0.4-1.4c0.5-0.3,1.1-0.1,1.4,0.4
	c0.1,0.1,0.2,0.2,0.3,0.3c0.3,0.1,0.6,0.1,0.8,0c0.1-0.1,0.2-0.2,0.3-0.3c0.3-0.5,0.9-0.6,1.4-0.4c0.5,0.3,0.6,0.9,0.4,1.4
	c-0.2,0.4-0.6,0.8-1,1C12,21,11.5,21.2,11,21.2z"/>
</svg>
