<?xml version="1.0" encoding="utf-8"?>
<!-- Generator: Adobe Illustrator 27.0.1, SVG Export Plug-In . SVG Version: 6.00 Build 0)  -->
<svg version="1.1" id="Layer_1" xmlns="http://www.w3.org/2000/svg" xmlns:xlink="http://www.w3.org/1999/xlink" x="0px" y="0px"
	 viewBox="0 0 22 22" style="enable-background:new 0 0 22 22;" xml:space="preserve">
<style type="text/css">
	.st0{fill:#8F5DD0;}
</style>
<path class="st0" d="M17.4,21.2H4.6c-1.6,0-2.8-1.3-2.8-2.8V5.5c0-1.6,1.3-2.8,2.8-2.8h12.8c1.6,0,2.8,1.3,2.8,2.8v12.8
	C20.2,19.9,19,21.2,17.4,21.2z M4.6,4.7C4.1,4.7,3.8,5,3.8,5.5v12.8c0,0.5,0.4,0.8,0.8,0.8h12.8c0.5,0,0.8-0.4,0.8-0.8V5.5
	c0-0.5-0.4-0.8-0.8-0.8H4.6z"/>
<path class="st0" d="M14.7,6.5c-0.6,0-1-0.4-1-1V1.8c0-0.6,0.4-1,1-1s1,0.4,1,1v3.7C15.7,6.1,15.2,6.5,14.7,6.5z"/>
<path class="st0" d="M7.3,6.5c-0.6,0-1-0.4-1-1V1.8c0-0.6,0.4-1,1-1s1,0.4,1,1v3.7C8.3,6.1,7.9,6.5,7.3,6.5z"/>
<path class="st0" d="M19.2,10.2H2.8c-0.6,0-1-0.4-1-1s0.4-1,1-1h16.5c0.6,0,1,0.4,1,1S19.8,10.2,19.2,10.2z"/>
</svg>
