<?xml version="1.0" encoding="utf-8"?>
<!-- Generator: Adobe Illustrator 27.0.1, SVG Export Plug-In . SVG Version: 6.00 Build 0)  -->
<svg version="1.1" id="Layer_1" xmlns="http://www.w3.org/2000/svg" xmlns:xlink="http://www.w3.org/1999/xlink" x="0px" y="0px"
	 viewBox="0 0 22 22" style="enable-background:new 0 0 22 22;" xml:space="preserve">
<style type="text/css">
	.st0{clip-path:url(#SVGID_00000056389348601837387600000004007679860276289408_);}
	.st1{fill:#062726;}
</style>
<g>
	<defs>
		<rect id="SVGID_1_" width="22" height="22"/>
	</defs>
	<clipPath id="SVGID_00000182493599163215613880000006100628530695679366_">
		<use xlink:href="#SVGID_1_"  style="overflow:visible;"/>
	</clipPath>
	<g style="clip-path:url(#SVGID_00000182493599163215613880000006100628530695679366_);">
		<path class="st1" d="M11,21.2c-1.2,0-2.4-0.2-3.5-0.6c-2-0.8-3.8-2.2-5-4c-1.2-1.8-1.8-4-1.6-6.2C1,8.2,1.9,6,3.3,4.4
			c1.4-1.7,3.4-2.8,5.5-3.3c2.1-0.5,4.4-0.3,6.4,0.6c0.5,0.2,0.7,0.8,0.5,1.3c-0.2,0.5-0.8,0.7-1.3,0.5C12.7,2.8,10.9,2.6,9.2,3
			C7.5,3.4,5.9,4.4,4.8,5.7C3.7,7,3,8.7,2.9,10.5s0.3,3.5,1.3,5c1,1.5,2.4,2.6,4,3.2c1.6,0.6,3.5,0.7,5.1,0.2
			c1.7-0.5,3.2-1.5,4.2-2.9c1-1.4,1.6-3.1,1.6-4.9v-0.8c0-0.6,0.4-1,1-1s1,0.4,1,1V11c0,2.2-0.7,4.3-2,6.1c-1.3,1.7-3.2,3-5.3,3.7
			C12.9,21,12,21.2,11,21.2z"/>
		<path class="st1" d="M11,13.8c-0.3,0-0.5-0.1-0.7-0.3l-2.8-2.8c-0.4-0.4-0.4-1,0-1.4C7.9,9,8.6,9,9,9.4l2,2L19.5,3
			c0.4-0.4,1-0.4,1.4,0c0.4,0.4,0.4,1,0,1.4l-9.2,9.2C11.5,13.7,11.3,13.8,11,13.8z"/>
	</g>
</g>
</svg>
