<?xml version="1.0" encoding="utf-8"?>
<!-- Generator: Adobe Illustrator 27.0.1, SVG Export Plug-In . SVG Version: 6.00 Build 0)  -->
<svg version="1.1" id="Layer_1" xmlns="http://www.w3.org/2000/svg" xmlns:xlink="http://www.w3.org/1999/xlink" x="0px" y="0px"
	 viewBox="0 0 22 22" style="enable-background:new 0 0 22 22;" xml:space="preserve">
<style type="text/css">
	.st0{clip-path:url(#SVGID_00000183933267503479022900000009136349939040838290_);}
	.st1{fill:#062726;}
</style>
<g>
	<defs>
		<rect id="SVGID_1_" width="22" height="22"/>
	</defs>
	<clipPath id="SVGID_00000091733861197089889520000016781233795378975110_">
		<use xlink:href="#SVGID_1_"  style="overflow:visible;"/>
	</clipPath>
	<g style="clip-path:url(#SVGID_00000091733861197089889520000016781233795378975110_);">
		<path class="st1" d="M11,21.2C5.4,21.2,0.8,16.6,0.8,11C0.8,5.4,5.4,0.8,11,0.8c5.6,0,10.2,4.6,10.2,10.2
			C21.2,16.6,16.6,21.2,11,21.2z M11,2.8c-4.5,0-8.2,3.7-8.2,8.2s3.7,8.2,8.2,8.2s8.2-3.7,8.2-8.2S15.5,2.8,11,2.8z"/>
		<path class="st1" d="M14.7,13.8c-0.2,0-0.3,0-0.4-0.1l-3.7-1.8C10.2,11.7,10,11.4,10,11V5.5c0-0.6,0.4-1,1-1s1,0.4,1,1v4.9
			l3.1,1.6c0.5,0.2,0.7,0.8,0.4,1.3C15.4,13.6,15,13.8,14.7,13.8z"/>
	</g>
</g>
</svg>
