<?xml version="1.0" encoding="utf-8"?>
<!-- Generator: Adobe Illustrator 27.0.1, SVG Export Plug-In . SVG Version: 6.00 Build 0)  -->
<svg version="1.1" id="Layer_1" xmlns="http://www.w3.org/2000/svg" xmlns:xlink="http://www.w3.org/1999/xlink" x="0px" y="0px"
	 viewBox="0 0 22 22" style="enable-background:new 0 0 22 22;" xml:space="preserve">
<style type="text/css">
	.st0{fill:#062726;}
</style>
<path class="st0" d="M17.4,21.2H4.6c-0.8,0-1.5-0.3-2-0.8c-0.5-0.5-0.8-1.3-0.8-2V8.2c0-0.3,0.1-0.6,0.4-0.8L10.4,1
	c0.4-0.3,0.9-0.3,1.2,0l8.3,6.4c0.2,0.2,0.4,0.5,0.4,0.8v10.1c0,0.7-0.3,1.5-0.8,2C18.9,20.9,18.2,21.2,17.4,21.2z M3.8,8.7v9.6
	c0,0.2,0.1,0.4,0.2,0.6c0.2,0.2,0.4,0.2,0.6,0.2h12.8c0.2,0,0.4-0.1,0.6-0.2c0.2-0.2,0.2-0.4,0.2-0.6V8.7L11,3.1L3.8,8.7z"/>
<path class="st0" d="M13.8,21.2c-0.6,0-1-0.4-1-1V12H9.2v8.2c0,0.6-0.4,1-1,1s-1-0.4-1-1V11c0-0.6,0.4-1,1-1h5.5c0.6,0,1,0.4,1,1
	v9.2C14.8,20.7,14.3,21.2,13.8,21.2z"/>
</svg>
