<?xml version="1.0" encoding="utf-8"?>
<!-- Generator: Adobe Illustrator 27.0.1, SVG Export Plug-In . SVG Version: 6.00 Build 0)  -->
<svg version="1.1" id="Layer_1" xmlns="http://www.w3.org/2000/svg" xmlns:xlink="http://www.w3.org/1999/xlink" x="0px" y="0px"
	 viewBox="0 0 22 22" style="enable-background:new 0 0 22 22;" xml:space="preserve">
<style type="text/css">
	.st0{fill:#062726;}
</style>
<path class="st0" d="M11,21.2c-0.2,0-0.4-0.1-0.6-0.2c-0.3-0.2-7.9-5.4-7.9-11.7c0-2.3,0.9-4.4,2.5-6c1.6-1.6,3.7-2.5,6-2.5
	c2.3,0,4.4,0.9,6,2.5c1.6,1.6,2.5,3.7,2.5,6c0,6.3-7.6,11.4-7.9,11.7C11.4,21.1,11.2,21.2,11,21.2z M11,2.8c-1.7,0-3.4,0.7-4.6,1.9
	C5.2,6,4.5,7.6,4.5,9.3c0,4.4,4.8,8.4,6.5,9.6c1.7-1.2,6.5-5.3,6.5-9.6c0-1.7-0.7-3.4-1.9-4.6C14.4,3.5,12.7,2.8,11,2.8z"/>
<path class="st0" d="M11,12.8c-1.9,0-3.5-1.6-3.5-3.5S9.1,5.8,11,5.8s3.5,1.6,3.5,3.5S12.9,12.8,11,12.8z M11,7.8
	c-0.8,0-1.5,0.7-1.5,1.5s0.7,1.5,1.5,1.5s1.5-0.7,1.5-1.5S11.8,7.8,11,7.8z"/>
</svg>
