<?xml version="1.0" encoding="utf-8"?>
<!-- Generator: Adobe Illustrator 27.0.1, SVG Export Plug-In . SVG Version: 6.00 Build 0)  -->
<svg version="1.1" id="Layer_1" xmlns="http://www.w3.org/2000/svg" xmlns:xlink="http://www.w3.org/1999/xlink" x="0px" y="0px"
	 viewBox="0 0 22 22" style="enable-background:new 0 0 22 22;" xml:space="preserve">
<style type="text/css">
	.st0{fill:#062726;}
</style>
<path class="st0" d="M2.8,20.2c-0.1,0-0.3,0-0.4-0.1C2,20,1.8,19.7,1.8,19.2V4.6c0-0.8,0.3-1.5,0.8-2s1.2-0.8,2-0.8h12.8
	c0.8,0,1.5,0.3,2,0.8s0.8,1.2,0.8,2v9.2c0,0.8-0.3,1.5-0.8,2s-1.2,0.8-2,0.8H6.8L3.5,20C3.3,20.1,3,20.2,2.8,20.2z M4.6,3.8
	C4.4,3.8,4.2,3.8,4,4C3.8,4.2,3.8,4.4,3.8,4.6v12.3l2-2c0.2-0.2,0.4-0.3,0.7-0.3h11c0.2,0,0.4-0.1,0.6-0.2s0.2-0.4,0.2-0.6V4.6
	c0-0.2-0.1-0.4-0.2-0.6c-0.2-0.2-0.4-0.2-0.6-0.2H4.6z"/>
</svg>
