<?xml version="1.0" encoding="utf-8"?>
<!-- Generator: Adobe Illustrator 27.0.1, SVG Export Plug-In . SVG Version: 6.00 Build 0)  -->
<svg version="1.1" id="Layer_1" xmlns="http://www.w3.org/2000/svg" xmlns:xlink="http://www.w3.org/1999/xlink" x="0px" y="0px"
	 viewBox="0 0 20 20" style="enable-background:new 0 0 20 20;" xml:space="preserve">
<style type="text/css">
	.st0{fill:#062726;}
</style>
<path class="st0" d="M9.2,16.8c-4.2,0-7.7-3.4-7.7-7.7c0-4.2,3.4-7.7,7.7-7.7c4.2,0,7.7,3.4,7.7,7.7C16.8,13.4,13.4,16.8,9.2,16.8z
	 M9.2,3.5C6,3.5,3.5,6,3.5,9.2s2.5,5.7,5.7,5.7s5.7-2.5,5.7-5.7S12.3,3.5,9.2,3.5z"/>
<path class="st0" d="M17.5,18.5c-0.3,0-0.5-0.1-0.7-0.3l-3.6-3.6c-0.4-0.4-0.4-1,0-1.4s1-0.4,1.4,0l3.6,3.6c0.4,0.4,0.4,1,0,1.4
	C18,18.4,17.8,18.5,17.5,18.5z"/>
</svg>
