<?xml version="1.0" encoding="utf-8"?>
<!-- Generator: Adobe Illustrator 27.0.1, SVG Export Plug-In . SVG Version: 6.00 Build 0)  -->
<svg version="1.1" id="Layer_1" xmlns="http://www.w3.org/2000/svg" xmlns:xlink="http://www.w3.org/1999/xlink" x="0px" y="0px"
	 viewBox="0 0 22 22" style="enable-background:new 0 0 22 22;" xml:space="preserve">
<style type="text/css">
	.st0{clip-path:url(#SVGID_00000088841955060611369770000003140277014439857841_);}
	.st1{fill:#062726;}
</style>
<g>
	<defs>
		<rect id="SVGID_1_" width="22" height="22"/>
	</defs>
	<clipPath id="SVGID_00000132792122176061626450000004209136469096355505_">
		<use xlink:href="#SVGID_1_"  style="overflow:visible;"/>
	</clipPath>
	<g style="clip-path:url(#SVGID_00000132792122176061626450000004209136469096355505_);">
		<path class="st1" d="M11,21.2C5.4,21.2,0.8,16.6,0.8,11C0.8,5.4,5.4,0.8,11,0.8c5.6,0,10.2,4.6,10.2,10.2
			C21.2,16.6,16.6,21.2,11,21.2z M11,2.8c-4.5,0-8.2,3.7-8.2,8.2s3.7,8.2,8.2,8.2s8.2-3.7,8.2-8.2S15.5,2.8,11,2.8z"/>
		<path class="st1" d="M17.5,18.5c-0.3,0-0.5-0.1-0.7-0.3l-13-13c-0.4-0.4-0.4-1,0-1.4s1-0.4,1.4,0l13,13c0.4,0.4,0.4,1,0,1.4
			C18,18.4,17.7,18.5,17.5,18.5z"/>
	</g>
</g>
</svg>
