<?xml version="1.0" encoding="utf-8"?>
<!-- Generator: Adobe Illustrator 27.0.1, SVG Export Plug-In . SVG Version: 6.00 Build 0)  -->
<svg version="1.1" id="Layer_1" xmlns="http://www.w3.org/2000/svg" xmlns:xlink="http://www.w3.org/1999/xlink" x="0px" y="0px"
	 viewBox="0 0 22 22" style="enable-background:new 0 0 22 22;" xml:space="preserve">
<style type="text/css">
	.st0{fill:#062726;}
</style>
<path class="st0" d="M4.3,19.5c-0.6,0-1-0.4-1-1v-5.8c0-0.6,0.4-1,1-1s1,0.4,1,1v5.8C5.3,19.1,4.9,19.5,4.3,19.5z"/>
<path class="st0" d="M4.3,10.3c-0.6,0-1-0.4-1-1V3.5c0-0.6,0.4-1,1-1s1,0.4,1,1v5.8C5.3,9.9,4.9,10.3,4.3,10.3z"/>
<path class="st0" d="M11,19.5c-0.6,0-1-0.4-1-1V11c0-0.6,0.4-1,1-1s1,0.4,1,1v7.5C12,19.1,11.6,19.5,11,19.5z"/>
<path class="st0" d="M11,8.7c-0.6,0-1-0.4-1-1V3.5c0-0.6,0.4-1,1-1s1,0.4,1,1v4.2C12,8.2,11.6,8.7,11,8.7z"/>
<path class="st0" d="M17.7,19.5c-0.6,0-1-0.4-1-1v-4.2c0-0.6,0.4-1,1-1s1,0.4,1,1v4.2C18.7,19.1,18.2,19.5,17.7,19.5z"/>
<path class="st0" d="M17.7,12c-0.6,0-1-0.4-1-1V3.5c0-0.6,0.4-1,1-1s1,0.4,1,1V11C18.7,11.6,18.2,12,17.7,12z"/>
<path class="st0" d="M6.8,13.7h-5c-0.6,0-1-0.4-1-1s0.4-1,1-1h5c0.6,0,1,0.4,1,1S7.4,13.7,6.8,13.7z"/>
<path class="st0" d="M13.5,8.7h-5c-0.6,0-1-0.4-1-1s0.4-1,1-1h5c0.6,0,1,0.4,1,1S14.1,8.7,13.5,8.7z"/>
<path class="st0" d="M20.2,15.3h-5c-0.6,0-1-0.4-1-1s0.4-1,1-1h5c0.6,0,1,0.4,1,1S20.7,15.3,20.2,15.3z"/>
</svg>
