<?xml version="1.0" encoding="utf-8"?>
<!-- Generator: Adobe Illustrator 27.0.1, SVG Export Plug-In . SVG Version: 6.00 Build 0)  -->
<svg version="1.1" id="Layer_1" xmlns="http://www.w3.org/2000/svg" xmlns:xlink="http://www.w3.org/1999/xlink" x="0px" y="0px"
	 viewBox="0 0 22 22" style="enable-background:new 0 0 22 22;" xml:space="preserve">
<style type="text/css">
	.st0{clip-path:url(#SVGID_00000176741642046623062120000014323004304318240911_);}
	.st1{fill:#8F5DD0;}
</style>
<g>
	<defs>
		<rect id="SVGID_1_" width="22" height="22"/>
	</defs>
	<clipPath id="SVGID_00000156563462098596672550000014535000263411196310_">
		<use xlink:href="#SVGID_1_"  style="overflow:visible;"/>
	</clipPath>
	<g style="clip-path:url(#SVGID_00000156563462098596672550000014535000263411196310_);">
		<path class="st1" d="M15.5,20.2c-0.5,0-1-0.4-1-1v-1.8c0-0.7-0.3-1.4-0.8-1.9c-0.5-0.5-1.2-0.8-1.9-0.8H4.6
			c-0.7,0-1.4,0.3-1.9,0.8S2,16.7,2,17.4v1.8c0,0.5-0.4,1-1,1s-1-0.4-1-1v-1.8c0-1.2,0.5-2.4,1.4-3.3c0.9-0.9,2-1.4,3.3-1.4h7.3
			c1.2,0,2.4,0.5,3.3,1.4c0.9,0.9,1.4,2,1.4,3.3v1.8C16.5,19.7,16.1,20.2,15.5,20.2z"/>
		<path class="st1" d="M8.3,11.1c-2.6,0-4.6-2.1-4.6-4.6s2.1-4.6,4.6-4.6s4.6,2.1,4.6,4.6S10.8,11.1,8.3,11.1z M8.3,3.8
			C6.8,3.8,5.6,5,5.6,6.5c0,1.5,1.2,2.6,2.6,2.6s2.6-1.2,2.6-2.6C10.9,5,9.7,3.8,8.3,3.8z"/>
		<path class="st1" d="M21,20.2c-0.5,0-1-0.4-1-1v-1.8c0-0.6-0.2-1.2-0.6-1.6c-0.4-0.5-0.9-0.8-1.4-0.9c-0.5-0.1-0.9-0.7-0.7-1.2
			c0.1-0.5,0.7-0.9,1.2-0.7c1,0.3,1.9,0.8,2.5,1.6c0.6,0.8,1,1.8,1,2.8v1.8C22,19.7,21.6,20.2,21,20.2z"/>
		<path class="st1" d="M14.6,11c-0.4,0-0.8-0.3-1-0.7c-0.1-0.5,0.2-1.1,0.7-1.2c0.6-0.1,1.1-0.5,1.4-0.9c0.4-0.5,0.6-1,0.6-1.6
			c0-0.6-0.2-1.2-0.6-1.6C15.5,4.4,15,4,14.4,3.9c-0.5-0.1-0.9-0.7-0.7-1.2c0.1-0.5,0.7-0.9,1.2-0.7c1,0.3,1.9,0.8,2.5,1.6
			c0.6,0.8,1,1.8,1,2.8c0,1-0.3,2-1,2.8c-0.6,0.8-1.5,1.4-2.5,1.6C14.8,11,14.7,11,14.6,11z"/>
	</g>
</g>
</svg>
